<svg xmlns="http://www.w3.org/2000/svg" width="133.196" height="113.718" viewBox="0 0 133.196 113.718">
  <g id="wane_callis_logo_white" data-name="wane callis logo white" transform="translate(-0.605)">
    <path id="Subtraction_4" data-name="Subtraction 4" d="M10.634,82.791C8.962,81.7,8.054,80.565,7.936,79.4a3.407,3.407,0,0,1,1.227-2.751,5.853,5.853,0,0,0,1.412-1.991,2.04,2.04,0,0,0,.16-.972A20.8,20.8,0,0,1,7.557,75.3a9.149,9.149,0,0,1-3.317.687h-.01a3.629,3.629,0,0,1-1.6-.37,4.148,4.148,0,0,1-1.271-.979,5.221,5.221,0,0,1-.883-1.395,5.729,5.729,0,0,1-.438-1.618,5.167,5.167,0,0,1,.037-1.508,4.187,4.187,0,0,1,.5-1.386,3.677,3.677,0,0,1,1.006-1.117,4.319,4.319,0,0,1,1.555-.7,7.358,7.358,0,0,1,1.7-.226,2.872,2.872,0,0,1,2.47,1.072A3.386,3.386,0,0,1,7.9,69.6a4.653,4.653,0,0,1-.164,1.552,1,1,0,0,1-.471.572,1.518,1.518,0,0,1-.746.187,1.32,1.32,0,0,1-1.094-.492,1.025,1.025,0,0,1-.057-.979,2.088,2.088,0,0,0,0-1.888,1.054,1.054,0,0,0-.438-.364,1.638,1.638,0,0,0-.684-.132,3.983,3.983,0,0,0-1.294.26A2.6,2.6,0,0,0,1.54,69.724a4,4,0,0,0-.329,2.26,3.337,3.337,0,0,0,1.09,2.05,3.714,3.714,0,0,0,1.178.689,5.556,5.556,0,0,0,1.661.315c.09,0,.182.006.271.006,2.13,0,3.807-1.191,5.749-2.57a30.121,30.121,0,0,1,3.881-2.451,16.97,16.97,0,0,1,5.377-1.684,4.458,4.458,0,0,1-2.2-1.856,14.784,14.784,0,0,0-2.193-2.977,3.4,3.4,0,0,0-1.057-.689,3.326,3.326,0,0,0-1.248-.219,5.854,5.854,0,0,0-.773.055,4.582,4.582,0,0,0-1.854.633,2.715,2.715,0,0,0-.944.952,1.032,1.032,0,0,0-.15.84c.026.06.061.132.1.215v0c.218.453.582,1.211.357,1.7a.786.786,0,0,1-.555.412.751.751,0,0,1-.195.026.775.775,0,0,1-.53-.222,1.576,1.576,0,0,1-.38-.585,3.012,3.012,0,0,1,.756-3.2,5.632,5.632,0,0,1,1.723-1.08,5.8,5.8,0,0,1,2.156-.436,4.309,4.309,0,0,1,3.317,1.471,8.4,8.4,0,0,0-.626-1.4,4.791,4.791,0,0,0-.744-1.016,1.91,1.91,0,0,0-1-.579,2.506,2.506,0,0,1-1.113-.479,1.262,1.262,0,0,1-.515-.809c-.055-.478.307-.906,1.018-1.206a1.412,1.412,0,0,1,.548-.117c1.557,0,2.551,2.92,2.759,4.994v0a4.873,4.873,0,0,1,.869-1.74,4.383,4.383,0,0,1,1.428-1.2,5.112,5.112,0,0,1,2.394-.544h.141a7.306,7.306,0,0,1,3.144.688,3.243,3.243,0,0,1,.895.651,1.569,1.569,0,0,1,.41.725.994.994,0,0,1-.119.735,1.616,1.616,0,0,1-.71.6,2.126,2.126,0,0,1-.915.245c-.655,0-1.049-.47-1.465-.968a3.386,3.386,0,0,0-1.15-1.012,2.966,2.966,0,0,0-1.2-.227,3.764,3.764,0,0,0-1.322.237,2.817,2.817,0,0,0-1.151.783,2.606,2.606,0,0,0-.552,1.074,3.936,3.936,0,0,0-.05,1.535,4.021,4.021,0,0,0,.523,1.49,4.4,4.4,0,0,0,.964,1.118,5.7,5.7,0,0,0,1.226.775,6.874,6.874,0,0,0,1.31.462c.224-.015.486-.033.752-.041.214-.008.433-.011.651-.011.321,0,.653.008.988.025A3.135,3.135,0,0,1,22.8,67.36a2.105,2.105,0,0,1-.532-1.63,1.684,1.684,0,0,1,.413-1.07,1.077,1.077,0,0,1,.783-.339,1.111,1.111,0,0,1,.8.345,1.3,1.3,0,0,1,.335,1,2.734,2.734,0,0,0,1.236,2.665,17.483,17.483,0,0,1,2.959.685c-.941-.574-1.411-1.159-1.478-1.84a4.2,4.2,0,0,1,.505-1.946l.011-.025a2.337,2.337,0,0,0-.055-2.046,2.825,2.825,0,0,0-.595-.794,4.492,4.492,0,0,1,2.524,2.366,3.1,3.1,0,0,1-.256,2.437,2.657,2.657,0,0,0-.419,1.926A17.122,17.122,0,0,1,35,72.637,13.226,13.226,0,0,1,36.957,74.8a2.676,2.676,0,0,1,.282.4,12.758,12.758,0,0,0,2.372.224,13,13,0,0,0,2.967-.348,8.788,8.788,0,0,1-2.939-.889A4.584,4.584,0,0,1,38.1,72.915a3.588,3.588,0,0,1-.7-2.1,3.969,3.969,0,0,1,.8-.085,3.564,3.564,0,0,1,1.965.6,5.426,5.426,0,0,1,1.389,1.352,9.087,9.087,0,0,1,1.223,2.358c.268-.067.515-.137.755-.212.774-.242,1.633-.559,2.7-1a.053.053,0,0,1,.009-.044.071.071,0,0,1,.056-.019.307.307,0,0,1,.066.009c.818-.338,1.639-.7,2.509-1.077l0,0c.918-.4,1.868-.816,2.819-1.207a31.121,31.121,0,0,1-7.477-5.715c-.444-.461-.895-.965-1.417-1.585a7.628,7.628,0,0,1,.211,2.774,3.584,3.584,0,0,1-.657,1.749,1.417,1.417,0,0,1-1.086.612,1.08,1.08,0,0,1-.55-.153,1.9,1.9,0,0,1-.629-.529.913.913,0,0,1-.164-.584,4.529,4.529,0,0,1,.609-1.573c.246-.482.525-1.027.792-1.694a3.559,3.559,0,0,0,.224-1.568l-.028-.016h0l-.046-.026a10.421,10.421,0,0,1-1.2-.718,16.815,16.815,0,0,1-2.711-2.312,17.011,17.011,0,0,1-2.9-4.142A18.05,18.05,0,0,1,32.909,49.8a19.692,19.692,0,0,1-.1-2.007l-.089-.005h-.008c-.072,0-.147-.01-.224-.01h-.07a2.773,2.773,0,0,0-1.505.506,3.109,3.109,0,0,0-.951,1.114,3.826,3.826,0,0,0-.425,1.588,2.384,2.384,0,0,0,.3,1.344,3.381,3.381,0,0,0,1.16,1,2.956,2.956,0,0,1,.971.809,1.616,1.616,0,0,1,.066,1.45,1.655,1.655,0,0,1-.463.755.986.986,0,0,1-.66.248,2.161,2.161,0,0,1-1.585-1.05,7.031,7.031,0,0,1-1.146-3.08,5.194,5.194,0,0,1,.174-2.511,4.369,4.369,0,0,1,.995-1.617,4.894,4.894,0,0,1,1.64-1.122c-.118,0-.237.006-.353.006a10.705,10.705,0,0,1-2.715-.342,3.706,3.706,0,0,1-1.991-1.1A1.3,1.3,0,0,1,25.7,44.6c.2-.753.586-1.167,1.075-1.167a1.282,1.282,0,0,1,.862.408,2.512,2.512,0,0,1,.618,1.028,1.912,1.912,0,0,0,.708.912,4.792,4.792,0,0,0,1.107.6,8.454,8.454,0,0,0,1.468.433,4.306,4.306,0,0,1-1.27-1.3,4.419,4.419,0,0,1-.6-1.562,5.87,5.87,0,0,1,.952-4.27,2.9,2.9,0,0,1,1.151-.954,3.113,3.113,0,0,1,1.308-.292,1.82,1.82,0,0,1,1.353.474.721.721,0,0,1,.182.582.807.807,0,0,1-.3.582.959.959,0,0,1-.573.155,4.174,4.174,0,0,1-1.2-.254c-.088-.028-.163-.052-.226-.07a.474.474,0,0,0-.133-.018,1.44,1.44,0,0,0-.921.484,3.765,3.765,0,0,0-.954,2.769,4.314,4.314,0,0,0,.149,1.188,2.766,2.766,0,0,0,.456.918,5.4,5.4,0,0,0,1.927,1.436,16.92,16.92,0,0,1,1.041-4.909,31.683,31.683,0,0,1,1.766-3.8c.427-.818.832-1.591,1.149-2.351.151-.514.326-1.05.518-1.592a5.84,5.84,0,0,0,.054-2.36,5.527,5.527,0,0,0-.545-1.611,3.7,3.7,0,0,0-.855-1.074,3.354,3.354,0,0,0-2.2-.786,4.016,4.016,0,0,0-2.175.644,2.592,2.592,0,0,0-1.19,1.585,2.539,2.539,0,0,0,.223,2.083,1.146,1.146,0,0,0,.926.4,2.775,2.775,0,0,0,1.293-.385,1.225,1.225,0,0,1,.59-.17.891.891,0,0,1,.653.289,1.438,1.438,0,0,1,.345.677,1.562,1.562,0,0,1-.036.838,1.013,1.013,0,0,1-.527.607,4.723,4.723,0,0,1-1.879.391,3.5,3.5,0,0,1-1.168-.186,2.483,2.483,0,0,1-1.027-.674,4.453,4.453,0,0,1-.764-3.5,4.344,4.344,0,0,1,1.621-3.038,4.723,4.723,0,0,1,1.446-.781,5.079,5.079,0,0,1,1.622-.264,4.852,4.852,0,0,1,1.514.238,4.315,4.315,0,0,1,1.351.723A4.132,4.132,0,0,1,37.617,28.9a4.963,4.963,0,0,1,.566,1.741,7.465,7.465,0,0,1,.061,1.059,31.184,31.184,0,0,1,3.794-6.3,31.735,31.735,0,0,1,5.127-5.227c-.088.007-.176.01-.262.01A3.689,3.689,0,0,1,45.791,20a10.712,10.712,0,0,0-2.932-.641,2.647,2.647,0,0,0-2.117,1.05,3.57,3.57,0,0,0-.772,1.315,2.1,2.1,0,0,0-.073,1.038.786.786,0,0,0,.333.559c.048.024.108.05.177.081.358.159.957.425,1.07.824a.6.6,0,0,1-.116.515.586.586,0,0,1-.5.25,1.659,1.659,0,0,1-1.123-.61,2.425,2.425,0,0,1-.476-.795,2.265,2.265,0,0,1-.122-1.013,4.587,4.587,0,0,1,1.119-2.452,3.827,3.827,0,0,1,1.142-.89,3.27,3.27,0,0,1,1.477-.349,3.575,3.575,0,0,1,.48.033,5.278,5.278,0,0,0-2.2-.733,1.372,1.372,0,0,0-.706.171,1.908,1.908,0,0,1-.956.281.858.858,0,0,1-.763-.349,1.125,1.125,0,0,1,.1-1.088,1.058,1.058,0,0,1,1.024-.6,6.059,6.059,0,0,1,3.386,1.8h0a3.812,3.812,0,0,1-.368-1.5,3.4,3.4,0,0,1,.258-1.45,4.032,4.032,0,0,1,1.194-1.545,4.875,4.875,0,0,1,2.842-1.261,1.155,1.155,0,0,1,1.014.429,1.04,1.04,0,0,1,0,1.006,1.5,1.5,0,0,1-.512.676,1.068,1.068,0,0,1-.617.167,3.956,3.956,0,0,1-.637-.072l-.02,0a4.259,4.259,0,0,0-.694-.075,1.672,1.672,0,0,0-.482.065A2.45,2.45,0,0,0,44.2,15.5a2.626,2.626,0,0,0-.692,1.231A2.264,2.264,0,0,0,44.419,19a3.167,3.167,0,0,0,2.147.784,4.532,4.532,0,0,0,1.406-.236,31.453,31.453,0,0,1,5.236-3.206,30.892,30.892,0,0,1,5.83-2.132,4.624,4.624,0,0,1-1.245-.379,2.843,2.843,0,0,1-.84-.6,2.087,2.087,0,0,1-.459-.747,1.981,1.981,0,0,1-.1-.82A2.307,2.307,0,0,1,56.7,10.7a2.914,2.914,0,0,1,.735-.837,3.655,3.655,0,0,1,1.123-.592A4.712,4.712,0,0,1,60.03,9.05,6.673,6.673,0,0,1,63.8,10.273L66.23,7.849A11.465,11.465,0,0,1,65.507,6.3a4.994,4.994,0,0,1-1.191.99,3.13,3.13,0,0,1-1.576.443,2.141,2.141,0,0,1-1.524-.6A2.072,2.072,0,0,1,60.6,5.823a1.707,1.707,0,0,1,.371-1.211,2.122,2.122,0,0,1,1.383-.7,2.333,2.333,0,0,0-.342.37,1.73,1.73,0,0,0-.365.933,1.521,1.521,0,0,0,.538,1.163,1.438,1.438,0,0,0,1.03.417,2.353,2.353,0,0,0,1.063-.289,4.5,4.5,0,0,0,1.036-.753A6.7,6.7,0,0,1,65,2.825,4.373,4.373,0,0,1,66.6,0a4.374,4.374,0,0,1,1.6,2.826,6.7,6.7,0,0,1-.316,2.928,4.506,4.506,0,0,0,1.036.753,2.353,2.353,0,0,0,1.063.289A1.438,1.438,0,0,0,71,6.379a1.521,1.521,0,0,0,.538-1.163,1.681,1.681,0,0,0-.365-.933,2.3,2.3,0,0,0-.342-.37,2.122,2.122,0,0,1,1.383.7,1.707,1.707,0,0,1,.371,1.211,2.072,2.072,0,0,1-.616,1.317,2.121,2.121,0,0,1-1.524.6,3.13,3.13,0,0,1-1.575-.444,5,5,0,0,1-1.19-.989,11.493,11.493,0,0,1-.723,1.543l2.427,2.424a6.676,6.676,0,0,1,3.773-1.224,4.712,4.712,0,0,1,1.47.224,3.657,3.657,0,0,1,1.122.59,2.917,2.917,0,0,1,.736.835,2.311,2.311,0,0,1,.31.959,1.982,1.982,0,0,1-.1.816,2.08,2.08,0,0,1-.451.745,2.818,2.818,0,0,1-.828.6,4.561,4.561,0,0,1-1.229.384,30.938,30.938,0,0,1,11.2,5.4,4.453,4.453,0,0,0,1.234.183A3.168,3.168,0,0,0,88.773,19a2.264,2.264,0,0,0,.912-2.268,2.626,2.626,0,0,0-.692-1.231,2.45,2.45,0,0,0-1.015-.657,1.674,1.674,0,0,0-.483-.065,4.259,4.259,0,0,0-.694.075l-.019,0a3.964,3.964,0,0,1-.638.072,1.067,1.067,0,0,1-.617-.167,1.5,1.5,0,0,1-.512-.676,1.035,1.035,0,0,1,0-1.006,1.154,1.154,0,0,1,1.014-.43,3.4,3.4,0,0,1,1.288.3,6.455,6.455,0,0,1,1.552.964,4.032,4.032,0,0,1,1.194,1.545,3.4,3.4,0,0,1,.259,1.45,3.758,3.758,0,0,1-.369,1.5,6.061,6.061,0,0,1,3.386-1.8,1.058,1.058,0,0,1,1.024.6,1.126,1.126,0,0,1,.1,1.088.858.858,0,0,1-.763.349,1.908,1.908,0,0,1-.956-.281,1.373,1.373,0,0,0-.706-.17,5.271,5.271,0,0,0-2.2.733,3.578,3.578,0,0,1,.48-.033,3.27,3.27,0,0,1,1.477.349,3.826,3.826,0,0,1,1.142.89,4.587,4.587,0,0,1,1.119,2.452,2.265,2.265,0,0,1-.122,1.013,2.425,2.425,0,0,1-.476.794,1.66,1.66,0,0,1-1.124.61.587.587,0,0,1-.5-.25.6.6,0,0,1-.115-.515c.113-.4.712-.665,1.069-.824.07-.031.13-.057.178-.081a.785.785,0,0,0,.333-.558,2.1,2.1,0,0,0-.073-1.038,3.572,3.572,0,0,0-.772-1.316,2.647,2.647,0,0,0-2.117-1.05A10.707,10.707,0,0,0,87.4,20a3.664,3.664,0,0,1-1.106.174c-.06,0-.121,0-.181,0a31.189,31.189,0,0,1,8.832,11.458,7.479,7.479,0,0,1,.064-.991,4.963,4.963,0,0,1,.566-1.741,4.132,4.132,0,0,1,1.035-1.225,4.316,4.316,0,0,1,1.351-.724,4.851,4.851,0,0,1,1.514-.238,5.08,5.08,0,0,1,1.622.264,4.723,4.723,0,0,1,1.446.781,4.344,4.344,0,0,1,1.62,3.038,4.45,4.45,0,0,1-.763,3.5,2.483,2.483,0,0,1-1.026.675,3.5,3.5,0,0,1-1.168.186,4.721,4.721,0,0,1-1.879-.391,1.013,1.013,0,0,1-.527-.607,1.562,1.562,0,0,1-.036-.838,1.438,1.438,0,0,1,.346-.677.89.89,0,0,1,.652-.289,1.225,1.225,0,0,1,.59.17,2.775,2.775,0,0,0,1.293.385,1.146,1.146,0,0,0,.926-.4,2.539,2.539,0,0,0,.222-2.083,2.592,2.592,0,0,0-1.189-1.585,4.015,4.015,0,0,0-2.175-.644,3.354,3.354,0,0,0-2.2.786,3.7,3.7,0,0,0-.855,1.074,5.53,5.53,0,0,0-.545,1.611,5.772,5.772,0,0,0,.019,2.188c.239.667.442,1.294.619,1.918.307.711.684,1.433,1.083,2.2a31.589,31.589,0,0,1,1.766,3.8,16.923,16.923,0,0,1,1.04,4.91,5.4,5.4,0,0,0,1.928-1.436,2.764,2.764,0,0,0,.456-.918,4.312,4.312,0,0,0,.149-1.188,3.769,3.769,0,0,0-.954-2.769,1.443,1.443,0,0,0-.921-.484.474.474,0,0,0-.133.018c-.063.018-.139.043-.226.07a4.176,4.176,0,0,1-1.2.254.958.958,0,0,1-.573-.155.808.808,0,0,1-.3-.582.721.721,0,0,1,.182-.582,1.82,1.82,0,0,1,1.353-.474,3.113,3.113,0,0,1,1.308.292,2.9,2.9,0,0,1,1.15.954,5.869,5.869,0,0,1,.95,4.271,4.419,4.419,0,0,1-.6,1.562,4.306,4.306,0,0,1-1.27,1.3,8.477,8.477,0,0,0,1.468-.433,4.789,4.789,0,0,0,1.106-.6,1.911,1.911,0,0,0,.708-.912,2.512,2.512,0,0,1,.618-1.028,1.283,1.283,0,0,1,.862-.408c.489,0,.871.414,1.075,1.167a1.3,1.3,0,0,1-.225,1.189,3.7,3.7,0,0,1-1.991,1.1,10.71,10.71,0,0,1-2.715.342c-.119,0-.238,0-.353-.006h0a4.89,4.89,0,0,1,1.638,1.121,4.368,4.368,0,0,1,.995,1.617,5.192,5.192,0,0,1,.174,2.511,7.32,7.32,0,0,1-1.146,3.08,2.162,2.162,0,0,1-1.585,1.05.985.985,0,0,1-.661-.249,1.655,1.655,0,0,1-.462-.755,1.617,1.617,0,0,1,.066-1.45,2.964,2.964,0,0,1,.971-.809,3.376,3.376,0,0,0,1.16-1,2.385,2.385,0,0,0,.3-1.344,3.826,3.826,0,0,0-.425-1.588,3.108,3.108,0,0,0-.951-1.114,2.774,2.774,0,0,0-1.506-.506h-.07c-.077,0-.154.005-.223.01l-.1.006a19.549,19.549,0,0,1-.1,2.005,18.047,18.047,0,0,1-1.765,6.209,17.01,17.01,0,0,1-2.9,4.142,16.813,16.813,0,0,1-2.711,2.312,10.419,10.419,0,0,1-1.2.718l-.046.027-.028.016a3.551,3.551,0,0,0,.223,1.568c.267.666.546,1.212.792,1.693a4.532,4.532,0,0,1,.61,1.573.913.913,0,0,1-.163.584,1.9,1.9,0,0,1-.63.529,1.081,1.081,0,0,1-.55.153,1.424,1.424,0,0,1-1.1-.624,3.632,3.632,0,0,1-.655-1.791,7.782,7.782,0,0,1,.248-2.842,31.514,31.514,0,0,1-8.989,7.393c.968.4,1.935.82,2.87,1.228l0,0,0,0c.872.381,1.7.742,2.517,1.081a.3.3,0,0,1,.066-.009.071.071,0,0,1,.056.018.054.054,0,0,1,.01.044c1.064.437,1.923.754,2.7,1,.241.075.488.144.755.211a9.127,9.127,0,0,1,1.224-2.358,5.429,5.429,0,0,1,1.389-1.352,3.563,3.563,0,0,1,1.965-.6,3.969,3.969,0,0,1,.8.085,3.588,3.588,0,0,1-.7,2.1,4.582,4.582,0,0,1-1.538,1.277,8.775,8.775,0,0,1-2.939.889,13,13,0,0,0,2.967.348A12.752,12.752,0,0,0,95.95,75.2a2.729,2.729,0,0,1,.282-.4,13.25,13.25,0,0,1,1.953-2.165,17.12,17.12,0,0,1,5.973-3.544,2.648,2.648,0,0,0-.419-1.926,3.094,3.094,0,0,1-.256-2.436,4.492,4.492,0,0,1,2.524-2.367,2.8,2.8,0,0,0-.594.794,2.337,2.337,0,0,0-.055,2.046l.011.026a4.2,4.2,0,0,1,.5,1.945c-.068.681-.538,1.265-1.479,1.839a17.478,17.478,0,0,1,2.96-.685,2.733,2.733,0,0,0,1.236-2.665,1.327,1.327,0,0,1,.335-1,1.111,1.111,0,0,1,.8-.345,1.077,1.077,0,0,1,.783.339,1.684,1.684,0,0,1,.413,1.07,2.105,2.105,0,0,1-.532,1.63,3.136,3.136,0,0,1-1.349.808c.338-.017.67-.025.988-.025.218,0,.437,0,.65.011.267.009.528.026.752.041a6.876,6.876,0,0,0,1.31-.462,5.706,5.706,0,0,0,1.226-.775,4.4,4.4,0,0,0,.964-1.118,4.02,4.02,0,0,0,.523-1.49,3.936,3.936,0,0,0-.051-1.535,2.606,2.606,0,0,0-.552-1.074,2.818,2.818,0,0,0-1.151-.783,3.763,3.763,0,0,0-1.321-.237,2.966,2.966,0,0,0-1.2.227,3.385,3.385,0,0,0-1.15,1.013c-.416.5-.809.968-1.464.968a2.125,2.125,0,0,1-.915-.245,1.617,1.617,0,0,1-.71-.6.994.994,0,0,1-.119-.735,1.568,1.568,0,0,1,.41-.725,3.242,3.242,0,0,1,.895-.651,7.3,7.3,0,0,1,3.144-.688h.141a5.112,5.112,0,0,1,2.394.544,4.382,4.382,0,0,1,1.428,1.2,4.85,4.85,0,0,1,.869,1.742c.208-2.074,1.2-4.994,2.759-4.994a1.413,1.413,0,0,1,.548.117c.711.3,1.073.728,1.018,1.206a1.262,1.262,0,0,1-.515.809,2.5,2.5,0,0,1-1.112.479,1.911,1.911,0,0,0-1,.579,4.789,4.789,0,0,0-.744,1.016,8.425,8.425,0,0,0-.627,1.4,4.31,4.31,0,0,1,3.316-1.47,5.8,5.8,0,0,1,2.156.436,5.631,5.631,0,0,1,1.723,1.08,3.011,3.011,0,0,1,.757,3.2,1.577,1.577,0,0,1-.38.585.775.775,0,0,1-.53.223.751.751,0,0,1-.195-.026.786.786,0,0,1-.555-.412c-.225-.488.14-1.247.358-1.7l0,0c.039-.081.073-.151.1-.211a1.033,1.033,0,0,0-.15-.841,2.716,2.716,0,0,0-.944-.951,4.582,4.582,0,0,0-1.853-.632,5.857,5.857,0,0,0-.773-.055,3.329,3.329,0,0,0-1.248.219,3.4,3.4,0,0,0-1.057.689,14.741,14.741,0,0,0-2.193,2.977,4.457,4.457,0,0,1-2.2,1.856,16.972,16.972,0,0,1,5.377,1.684,30.094,30.094,0,0,1,3.882,2.451c1.942,1.379,3.62,2.57,5.749,2.57.091,0,.18,0,.271-.006a5.558,5.558,0,0,0,1.661-.315,3.715,3.715,0,0,0,1.179-.689,3.338,3.338,0,0,0,1.09-2.05,4,4,0,0,0-.329-2.26,2.6,2.6,0,0,0-1.417-1.407,3.985,3.985,0,0,0-1.295-.26,1.639,1.639,0,0,0-.684.132,1.055,1.055,0,0,0-.438.364,2.088,2.088,0,0,0,0,1.888,1.023,1.023,0,0,1-.056.979,1.319,1.319,0,0,1-1.094.492,1.518,1.518,0,0,1-.746-.187,1,1,0,0,1-.471-.572,4.653,4.653,0,0,1-.164-1.552,3.483,3.483,0,0,1,.6-1.843,2.872,2.872,0,0,1,2.47-1.072,7.361,7.361,0,0,1,1.7.226,4.32,4.32,0,0,1,1.555.7,3.677,3.677,0,0,1,1.006,1.117,4.187,4.187,0,0,1,.5,1.386,5.165,5.165,0,0,1,.037,1.508,5.728,5.728,0,0,1-.438,1.618,5.223,5.223,0,0,1-.883,1.395,4.147,4.147,0,0,1-1.271.979,3.629,3.629,0,0,1-1.6.37h-.01a9.15,9.15,0,0,1-3.317-.686,20.807,20.807,0,0,1-3.178-1.609,2.037,2.037,0,0,0,.16.972,5.855,5.855,0,0,0,1.412,1.991,3.406,3.406,0,0,1,1.228,2.751c-.118,1.16-1.025,2.3-2.7,3.386a2.271,2.271,0,0,0,.284-.417,2.067,2.067,0,0,0,.258-1.047,2.111,2.111,0,0,0-.772-1.469l-.016-.014c-.875-.8-1.7-1.555-1.747-2.644a3.074,3.074,0,0,1,.387-1.523,9.117,9.117,0,0,1,1.476-2c-.635-.381-1.257-.779-1.858-1.163h0a25.305,25.305,0,0,0-3.677-2.093c-.273-.111-.567-.223-.874-.331a3.274,3.274,0,0,1,.8,1.157,16.44,16.44,0,0,1,.7,2.726,10.874,10.874,0,0,1,.139,2.231,7.007,7.007,0,0,1-.288,1.729,4.274,4.274,0,0,1-.584,1.22,1.847,1.847,0,0,1-1.409.892,1.076,1.076,0,0,1-.717-.275,1.892,1.892,0,0,1-.515-.637.912.912,0,0,1-.049-.6,4.522,4.522,0,0,1,.895-1.426c.333-.426.71-.909,1.1-1.514a3.612,3.612,0,0,0,.537-1.6,5.907,5.907,0,0,0-.084-1.656A9.718,9.718,0,0,0,115.774,70a18.634,18.634,0,0,0-2.549-.661,17.726,17.726,0,0,0-3.209-.3,16.788,16.788,0,0,0-4.868.719c.133.129,1.316,1.27,2.032,1.326a6.177,6.177,0,0,1,1.015-.537,6.527,6.527,0,0,1,2.5-.537,5.141,5.141,0,0,1,2.089.436,6.24,6.24,0,0,1,2.146,1.625h0a6.84,6.84,0,0,1-1.128.612,7.181,7.181,0,0,1-2.813.614,5.881,5.881,0,0,1-2.451-.531,7.56,7.56,0,0,1-2.558-1.986,9.382,9.382,0,0,1,.85,1.223,8.3,8.3,0,0,1,.914,2.2,5.631,5.631,0,0,1,.023,2.762,6.059,6.059,0,0,1-1.824,2.919h0a2.859,2.859,0,0,1-.385-.446,3.947,3.947,0,0,1-.606-1.312,4.516,4.516,0,0,1,0-2.136,8.055,8.055,0,0,1,1.433-2.919,4.345,4.345,0,0,0-1.021-1.664v0a5.347,5.347,0,0,1-.274,1.51,3.043,3.043,0,0,1-.638,1.1,2.046,2.046,0,0,1-1.235.632,5.567,5.567,0,0,0-2.2.731,2.312,2.312,0,0,0-.606.509v0a4.357,4.357,0,0,1,.208-1.79,11.525,11.525,0,0,1-2.383,1.617,10.535,10.535,0,0,1-2.5.885,7.309,7.309,0,0,1,2.7,1.116,3.627,3.627,0,0,1,1.593,2.912,3.958,3.958,0,0,1-.863.1,3.539,3.539,0,0,1-1.764-.473,5.008,5.008,0,0,1-1.318-1.118,8.815,8.815,0,0,1-1.393-2.356,12.7,12.7,0,0,1-1.513.089,17.747,17.747,0,0,1-4.577-.658,6.033,6.033,0,0,1,1.185,2.33,3.575,3.575,0,0,1-.512,2.845,3.66,3.66,0,0,1-2.219-2.662,7.574,7.574,0,0,1-.028-2.986c-.466-.153-.931-.317-1.383-.486a9.424,9.424,0,0,1-2.4,1.453,9.6,9.6,0,0,1-3.717.731c-.281,0-.57-.012-.856-.034a9.65,9.65,0,0,1-3.669-1.01,14.82,14.82,0,0,1-2.441-1.645l-.07-.054c-.682.133-1.383.242-2.145.335a.558.558,0,0,1,.3.356,2.512,2.512,0,0,1,.053.839,1.949,1.949,0,0,1-.354.984,1.525,1.525,0,0,1-1.284.559A3.826,3.826,0,0,1,68,77.606,2.131,2.131,0,0,1,66.6,76.427a2.132,2.132,0,0,1-1.407,1.179,3.829,3.829,0,0,1-1.046.168,1.524,1.524,0,0,1-1.284-.558,1.892,1.892,0,0,1-.355-.984,2.518,2.518,0,0,1,.053-.839.557.557,0,0,1,.284-.347c-.658-.079-1.357-.19-2.136-.339l-.059.046A14.819,14.819,0,0,1,58.2,76.4a9.649,9.649,0,0,1-3.67,1.01c-.286.023-.574.034-.856.034a9.593,9.593,0,0,1-3.717-.731,9.429,9.429,0,0,1-2.4-1.453c-.452.17-.917.333-1.382.486a7.6,7.6,0,0,1-.028,2.986,3.66,3.66,0,0,1-2.219,2.662,3.573,3.573,0,0,1-.513-2.845,6.042,6.042,0,0,1,1.185-2.33,17.748,17.748,0,0,1-4.577.658,12.7,12.7,0,0,1-1.514-.089,8.793,8.793,0,0,1-1.393,2.356A5.009,5.009,0,0,1,35.8,80.262a3.541,3.541,0,0,1-1.764.474,3.957,3.957,0,0,1-.863-.1,3.629,3.629,0,0,1,1.593-2.912,7.067,7.067,0,0,1,2.7-1.116,10.537,10.537,0,0,1-2.5-.885,11.523,11.523,0,0,1-2.383-1.617,4.339,4.339,0,0,1,.207,1.792,2.262,2.262,0,0,0-.606-.509,5.565,5.565,0,0,0-2.2-.731,2.046,2.046,0,0,1-1.235-.632,3.044,3.044,0,0,1-.638-1.1,5.276,5.276,0,0,1-.273-1.513,4.308,4.308,0,0,0-1.021,1.664,8.048,8.048,0,0,1,1.433,2.919,4.516,4.516,0,0,1,0,2.136,3.947,3.947,0,0,1-.606,1.312,2.806,2.806,0,0,1-.386.446,6.059,6.059,0,0,1-1.824-2.918,5.631,5.631,0,0,1,.023-2.761,8.3,8.3,0,0,1,.914-2.2,9.357,9.357,0,0,1,.85-1.224,7.561,7.561,0,0,1-2.558,1.986A5.884,5.884,0,0,1,22.2,73.3a6.649,6.649,0,0,1-1.563-.192,7.672,7.672,0,0,1-1.25-.422,6.731,6.731,0,0,1-1.13-.614,6.241,6.241,0,0,1,2.146-1.625,5.141,5.141,0,0,1,2.089-.436,6.436,6.436,0,0,1,2.5.537,6.21,6.21,0,0,1,1.015.537c.686-.053,1.813-1.113,2.032-1.326a16.789,16.789,0,0,0-4.868-.719,17.723,17.723,0,0,0-3.209.3A18.632,18.632,0,0,0,17.418,70a9.744,9.744,0,0,0-.763,2.327,5.911,5.911,0,0,0-.085,1.656,3.613,3.613,0,0,0,.536,1.6c.389.6.766,1.087,1.1,1.513a4.528,4.528,0,0,1,.895,1.426.912.912,0,0,1-.049.6,1.891,1.891,0,0,1-.515.637,1.076,1.076,0,0,1-.718.276,1.846,1.846,0,0,1-1.409-.891,4.273,4.273,0,0,1-.584-1.22,7.005,7.005,0,0,1-.288-1.729,10.871,10.871,0,0,1,.139-2.232,16.445,16.445,0,0,1,.7-2.726,3.273,3.273,0,0,1,.8-1.157c-.3.1-.594.216-.874.331a25.3,25.3,0,0,0-3.68,2.094c-.6.385-1.222.781-1.858,1.163a9.119,9.119,0,0,1,1.476,2,3.074,3.074,0,0,1,.388,1.523c-.045,1.089-.872,1.844-1.747,2.644l-.017.015a2.112,2.112,0,0,0-.771,1.469,2.033,2.033,0,0,0,.258,1.047,2.236,2.236,0,0,0,.285.418Zm58.795-7.654h0c-.772.071-1.574.113-2.383.124a1.705,1.705,0,0,0,.9,1.566A2.076,2.076,0,0,0,68.7,77a.676.676,0,0,0,.578-.255,1.163,1.163,0,0,0,.039-1.025.535.535,0,0,1,.108-.587Zm-5.668,0a.534.534,0,0,1,.109.588,1.16,1.16,0,0,0,.038,1.024.676.676,0,0,0,.579.256,2.076,2.076,0,0,0,.76-.177,1.7,1.7,0,0,0,.9-1.559H66c-.681-.013-1.394-.055-2.243-.132ZM79.3,72.518h0a30.793,30.793,0,0,1-6.224,2.06l.276.195a13.891,13.891,0,0,0,1.96,1.241,9.972,9.972,0,0,0,4.153.932,9.736,9.736,0,0,0,5.662-1.877c-1.626-.634-3.186-1.347-4.694-2.037h0c-.391-.179-.76-.348-1.131-.515Zm-25.466.027h0c-.364.164-.729.332-1.082.493-1.506.688-3.064,1.4-4.687,2.033a9.739,9.739,0,0,0,5.663,1.877,9.971,9.971,0,0,0,4.153-.932,13.913,13.913,0,0,0,1.962-1.243l.034-.024.221-.157a30.858,30.858,0,0,1-6.263-2.047Zm51.294-2.776h0A18,18,0,0,0,101,71.635a22.8,22.8,0,0,0-4.243,3.388,14.646,14.646,0,0,0,4.4-1.967,4.927,4.927,0,0,1,3.6-1.754,1.479,1.479,0,0,0,.331-.424,1.246,1.246,0,0,0,.031-1.11Zm-77.063,0a1.246,1.246,0,0,0,.031,1.11,1.478,1.478,0,0,0,.331.424,4.926,4.926,0,0,1,3.6,1.754,14.643,14.643,0,0,0,4.4,1.966,22.8,22.8,0,0,0-4.243-3.388,18,18,0,0,0-4.125-1.866ZM66.6,72.1a10.278,10.278,0,0,0-1.13.846,2.437,2.437,0,0,1,.632.543l.271,0c.214,0,.429,0,.638-.007h.006l.088,0a2.437,2.437,0,0,1,.626-.536A10.275,10.275,0,0,0,66.6,72.1Zm-1.621,1.309h0l-.023.024h0l-.008.009.069,0,.055,0L65,73.417h0l-.027-.011Zm3.24,0-.02.008h0c-.022.009-.044.018-.065.028l.077,0,.038,0-.009-.009h0Zm-4.35-.206a3.047,3.047,0,0,0-.712.092c.528.062,1.113.11,1.79.148l.014-.018h0v0l.013-.015a2.821,2.821,0,0,0-1.1-.2Zm5.45,0a2.818,2.818,0,0,0-1.1.2l.014.017.012.015c.6-.035,1.194-.085,1.758-.153a3.053,3.053,0,0,0-.677-.083ZM61.04,70.422a10.533,10.533,0,0,0-1.936.183,16.119,16.119,0,0,0-3.005.957,29.168,29.168,0,0,0,6.3,1.624,5.173,5.173,0,0,1,1.952-.532l.082,0a2.016,2.016,0,0,1,.953.248,12.068,12.068,0,0,1,.93-.979,10.514,10.514,0,0,0-2.261-1.03,9.933,9.933,0,0,0-3.011-.467Zm7.721,2.228c.028,0,.056,0,.082,0a5.157,5.157,0,0,1,1.944.528,29,29,0,0,0,6.245-1.644,15.983,15.983,0,0,0-2.946-.932,10.529,10.529,0,0,0-1.936-.183,9.935,9.935,0,0,0-3.011.467,10.518,10.518,0,0,0-2.261,1.03,12,12,0,0,1,.93.98,2.013,2.013,0,0,1,.954-.248ZM65.292,70.7h0a9.612,9.612,0,0,1,1.3.959,9.692,9.692,0,0,1,1.294-.954c-.493.024-.9.035-1.281.035-.2,0-.366,0-.516-.006-.2,0-.4-.014-.594-.024h-.013l-.192-.01Zm1.294-55.661A29.226,29.226,0,0,0,53.934,70.626a22.787,22.787,0,0,1,4.5-1.158,26.249,26.249,0,0,1-5.86-2.717,26.752,26.752,0,0,1-8.494-8.486A26.343,26.343,0,0,1,40.171,46.44c-.071-.895-.1-1.8-.083-2.678a26.091,26.091,0,0,1,2.241-10.1,26.66,26.66,0,0,1,2.485-4.412,26.986,26.986,0,0,1,7.161-7.022,26.682,26.682,0,0,1,4.459-2.4,26.112,26.112,0,0,1,10.138-2.045c.177,0,.35,0,.529.005A26.363,26.363,0,0,1,85.7,25.9c.3.311.6.634.88.959a26.653,26.653,0,0,1,2.87,3.958,26.144,26.144,0,0,1,3.3,9.049,26.814,26.814,0,0,1,.356,4.9,26.1,26.1,0,0,1-2.3,10.24,26.65,26.65,0,0,1-2.8,4.806,26.938,26.938,0,0,1-8.2,7.366,26.523,26.523,0,0,1-5.108,2.281,22.554,22.554,0,0,1,4.5,1.142,29.734,29.734,0,0,0,11.874-10.39,29.132,29.132,0,0,0,3.457-7.24,28.794,28.794,0,0,0,1.338-8.152,29.241,29.241,0,0,0-28.7-29.777c-.211,0-.415,0-.57,0ZM99.468,47.951a3.94,3.94,0,0,0-1.329.739,5.357,5.357,0,0,0-1,1.127,30.648,30.648,0,0,1-2,6.585,31.212,31.212,0,0,1-3.347,5.888l0,.019c-.016.06-.032.122-.046.184a22.5,22.5,0,0,0,3.86-3.719,17.935,17.935,0,0,0,2.363-3.8,16.816,16.816,0,0,0,1.509-7.02Zm-65.745,0a16.811,16.811,0,0,0,1.508,7.02,17.936,17.936,0,0,0,2.363,3.8,22.505,22.505,0,0,0,3.86,3.719l-.005-.021-.005-.021a30.64,30.64,0,0,1-5.416-12.678,5.293,5.293,0,0,0-.995-1.1,3.943,3.943,0,0,0-1.309-.722ZM70.6,59.863v.75a.376.376,0,0,0,.376.375h2.255a.376.376,0,0,0,.376-.375v-.75Zm-10.521,0v.75a.377.377,0,0,0,.376.375h2.254a.376.376,0,0,0,.376-.375v-.75Zm2.255-3h0v2.251h9.018V56.861ZM74.73,48.606a2.572,2.572,0,0,0-1.051.223,2.622,2.622,0,0,0-1.573,2.4v7.88h1.879a.753.753,0,0,0,.752-.75v-4.15a.319.319,0,0,1,.01-.051.413.413,0,0,1,.014-.073.384.384,0,0,1,.032-.063.271.271,0,0,1,.094-.106.345.345,0,0,1,.059-.04.356.356,0,0,1,.071-.024l.048-.016a2.627,2.627,0,0,0-.329-5.234Zm-15.775,0a2.627,2.627,0,0,0-.33,5.234l.048.016a.366.366,0,0,1,.224.169.371.371,0,0,1,.032.063.346.346,0,0,1,.014.073.391.391,0,0,1,.01.051v4.15a.752.752,0,0,0,.751.75h1.879v-7.88a2.621,2.621,0,0,0-1.571-2.4,2.578,2.578,0,0,0-1.055-.224Zm4.133,4.5a.753.753,0,0,0-.751.751v2.251h9.018V53.859a.753.753,0,0,0-.752-.751Zm-4.355-5.646-8.541,0v1.552a4.406,4.406,0,0,0,2.595,4.006v1.429a.264.264,0,0,0,.261.256h.518a.264.264,0,0,0,.261-.256l0-1.109a4.226,4.226,0,0,0,.779.071h1.268a3.787,3.787,0,0,1-.549-1.13A3.737,3.737,0,0,1,55.175,51a3.792,3.792,0,0,1,3.557-3.533ZM77.917,49.2h0a3.447,3.447,0,0,1,.272.495c1.035.069,3.441.326,3.441,1.225,0,.342-.35.624-1.04.84a10.8,10.8,0,0,1-2.182.37,3.4,3.4,0,0,1-.164.514h4.079V54.48h.921V52.641a.231.231,0,0,0,.231-.231V50.571a.231.231,0,0,0-.231-.231h-.3a.894.894,0,0,1-.662-.294,3.04,3.04,0,0,0-1.435-.544,17.563,17.563,0,0,0-2.934-.3Zm-14.83,3.161H70.6a1.488,1.488,0,0,1,.752.209V51.233A3.365,3.365,0,0,1,73.17,48.25l.507-5.4a2.628,2.628,0,0,0-2.618-2.873H62.629a2.628,2.628,0,0,0-2.617,2.873l.507,5.4a3.365,3.365,0,0,1,1.817,2.983v1.335a1.486,1.486,0,0,1,.751-.209Zm15.277-2.2a3.891,3.891,0,0,1,.149.838,3.667,3.667,0,0,1-.019.674,10.519,10.519,0,0,0,1.926-.291c.492-.136.751-.3.751-.461,0-.347-1.128-.652-2.807-.76ZM77.078,48.27h0a3.4,3.4,0,0,1,.492.465c2.1.026,4.479.348,5.063,1.006a.419.419,0,0,0,.314.141h.066v-.919a.686.686,0,0,0-.2-.489.694.694,0,0,0-.487-.2H77.078Zm20.153-9.024h0a31.162,31.162,0,0,1,.41,5.607,30.847,30.847,0,0,1-.245,3.3,4.576,4.576,0,0,1,.764-.442c.452-.2.891-.4,1.286-.584a18.515,18.515,0,0,0-.565-3.783,25.268,25.268,0,0,0-1.574-3.931h0Zm-61.268-.01-.078.17a25.3,25.3,0,0,0-1.577,3.935,18.592,18.592,0,0,0-.565,3.783c.374.175.77.353,1.287.584a4.6,4.6,0,0,1,.755.436,31.55,31.55,0,0,1-.235-4.47,30.62,30.62,0,0,1,.414-4.438Zm41.983,6.737h3.225a1.153,1.153,0,0,1,1.152,1.151v.688a1.154,1.154,0,0,1,.689.231V43.43a2.079,2.079,0,0,1-1.83-1.828H74.708a2.8,2.8,0,0,1,.1.462h5.835a.228.228,0,0,1,.216.152A2.554,2.554,0,0,0,82.4,43.758a.232.232,0,0,1,.157.216v.849a.231.231,0,1,1-.462,0V44.13a3.011,3.011,0,0,1-1.611-1.609H74.845a4.21,4.21,0,0,1-.019.436l-.283,3.015h1.562a1.148,1.148,0,0,1,.921.465,1.132,1.132,0,0,1,.921-.465Zm0,.458a.692.692,0,0,0-.69.692v.688h4.6v-.688a.692.692,0,0,0-.69-.692Zm-3.217,1.024h.008a3.683,3.683,0,0,1,1.6.357h.462v-.688a.692.692,0,0,0-.69-.692H74.5l-.1,1.039a3.125,3.125,0,0,1,.328-.014ZM59.19,46.423l-9.261,0a.262.262,0,0,0-.257.261.254.254,0,0,0,.25.257h.007l9.309,0Zm-6.93-6.988a1.816,1.816,0,0,0-1.812,1.813V46.04h.518V44.875h.518v.257a.259.259,0,1,0,.518,0V44.1a.259.259,0,0,0-.518,0v.261h-.518V41.249a1.291,1.291,0,0,1,1.294-1.292h.007a1.293,1.293,0,0,1,1.29,1.292v.022a1.555,1.555,0,0,0-1.293,1.53.259.259,0,0,0,.257.261h2.6a.264.264,0,0,0,.257-.261,1.554,1.554,0,0,0-1.3-1.53v-.022a1.816,1.816,0,0,0-1.816-1.813ZM66.574,26.259,87.557,38.641a.451.451,0,1,0,.46-.776L66.8,25.347a.451.451,0,0,0-.46,0L45.132,37.865a.451.451,0,1,0,.459.776L66.575,26.259ZM60.849,10.333a2.81,2.81,0,0,0-1.761.57,1.967,1.967,0,0,0-.917,1.51,2.492,2.492,0,0,0,1.066,1.744,30.661,30.661,0,0,1,6.741-.887A8.77,8.77,0,0,0,63.617,11.2,5.574,5.574,0,0,0,60.849,10.333Zm11.494,0a5.564,5.564,0,0,0-2.764.87,8.766,8.766,0,0,0-2.36,2.06,31.11,31.11,0,0,1,6.748.884,2.479,2.479,0,0,0,1.054-1.738A1.967,1.967,0,0,0,74.1,10.9a2.81,2.81,0,0,0-1.761-.57ZM66.6,8.585h0l-1.738,1.736L66.6,12.057l1.736-1.736Zm63.337,72.757a1.133,1.133,0,0,1-.777-.312,1.408,1.408,0,0,1-.416-.918,3.4,3.4,0,0,0-.6-1.741,2.627,2.627,0,0,0-1.3-.917h0a6.619,6.619,0,0,1,.829-.05c1.2,0,3.246.3,3.4,2.337A1.663,1.663,0,0,1,130.717,81,1.06,1.06,0,0,1,129.933,81.341Zm-126.676,0A1.059,1.059,0,0,1,2.473,81a1.6,1.6,0,0,1-.353-1.26C2.272,77.7,4.313,77.4,5.517,77.4a6.406,6.406,0,0,1,.834.051,2.628,2.628,0,0,0-1.3.917,3.4,3.4,0,0,0-.6,1.741,1.408,1.408,0,0,1-.416.918,1.132,1.132,0,0,1-.777.313ZM119.205,69.028a1.4,1.4,0,0,1-.953-.409,3.117,3.117,0,0,0-2.118-.949,2.767,2.767,0,0,0-1.073.226l0,0a6.873,6.873,0,0,1,.944-.886A5.049,5.049,0,0,1,117,66.4a2.849,2.849,0,0,1,1.171-.278,2.218,2.218,0,0,1,1.57.674,1.867,1.867,0,0,1,.531.826,1.124,1.124,0,0,1-.031.729,1.07,1.07,0,0,1-.405.493,1.139,1.139,0,0,1-.631.188Zm-105.219,0h0a1.138,1.138,0,0,1-.631-.188,1.07,1.07,0,0,1-.405-.493,1.125,1.125,0,0,1-.031-.729,1.866,1.866,0,0,1,.531-.826,2.218,2.218,0,0,1,1.57-.674,2.85,2.85,0,0,1,1.171.278,5.049,5.049,0,0,1,.993.612,6.755,6.755,0,0,1,.946.889,2.768,2.768,0,0,0-1.073-.226,3.118,3.118,0,0,0-2.119.949,1.4,1.4,0,0,1-.954.409Zm60.75-16.669a1.126,1.126,0,1,1,1.127-1.125,1.126,1.126,0,0,1-1.127,1.125Zm0-1.5a.375.375,0,1,0,.376.375.375.375,0,0,0-.376-.375Zm-15.781,1.5a1.126,1.126,0,1,1,1.127-1.126,1.126,1.126,0,0,1-1.127,1.126Zm0-1.5a.376.376,0,1,0,.265.109.375.375,0,0,0-.265-.109Zm10.145-1.5a1.125,1.125,0,1,1,1.127-1.125A1.125,1.125,0,0,1,69.1,49.357Zm0-1.5a.376.376,0,1,0,.265.109.375.375,0,0,0-.265-.109Zm-4.509,1.5a1.125,1.125,0,1,1,1.127-1.125,1.125,1.125,0,0,1-1.127,1.125Zm0-1.5a.375.375,0,1,0,.376.375.375.375,0,0,0-.376-.375ZM70.6,45.6a1.125,1.125,0,1,1,1.127-1.125A1.125,1.125,0,0,1,70.6,45.6Zm0-1.5a.375.375,0,1,0,.376.375A.375.375,0,0,0,70.6,44.1Zm-3.757,1.5a1.125,1.125,0,1,1,1.127-1.125A1.125,1.125,0,0,1,66.845,45.6Zm0-1.5a.375.375,0,1,0,.376.375.375.375,0,0,0-.376-.375Zm-3.758,1.5a1.125,1.125,0,1,1,1.127-1.125A1.125,1.125,0,0,1,63.087,45.6Zm0-1.5a.375.375,0,1,0,.375.376.375.375,0,0,0-.375-.376Z" transform="translate(0.607 0)" fill="#fff"/>
    <text id="WANE_CALLIS" data-name="WANE CALLIS" transform="translate(12.605 98.889)" fill="#fff" font-size="18" font-family="SegoeUI, Segoe UI"><tspan x="0" y="0">WANE CALLIS</tspan></text>
    <text id="LUXURY" transform="translate(32.605 112.718)" fill="#fff" font-size="5" font-family="SegoeUIBlack, Segoe UI" letter-spacing="2em"><tspan x="0" y="0">LUXURY</tspan></text>
  </g>
</svg>
